# MagicaVoxel @ Ephtracy

# group
o 

# material
mtllib gidoong.mtl
usemtl palette

# normals
vn -1 0 0
vn 1 0 0
vn 0 0 1
vn 0 0 -1
vn 0 -1 0
vn 0 1 0

# texcoords
vt 0.833984 0.5
vt 0.923828 0.5

# verts
v -0.5 0 0.5
v -0.5 0 -0.5
v -0.5 4 0.5
v -0.5 4 0
v -0.5 4 -0.5
v -0.5 4.2 0.5
v -0.5 4.2 0
v -0.5 4.4 0.5
v -0.5 4.4 0
v -0.5 4.5 0.5
v -0.5 4.5 0
v -0.5 4.7 -0.3
v -0.5 4.7 -0.5
v -0.5 5 0.5
v -0.5 5 -0.3
v -0.4 4.2 0.5
v -0.4 4.2 0
v -0.4 4.4 0.5
v -0.4 4.4 0
v 0.5 0 0.5
v 0.5 0 -0.5
v 0.5 4 0.5
v 0.5 4 0
v 0.5 4 -0.5
v 0.5 4.5 0.5
v 0.5 4.5 0
v 0.5 4.7 -0.3
v 0.5 4.7 -0.5
v 0.5 5 0.5
v 0.5 5 -0.3
v -0.5 0 0.5
v -0.5 4 0.5
v -0.5 4.2 0.5
v -0.5 4.4 0.5
v -0.5 4.5 0.5
v -0.5 5 0.5
v -0.4 4.2 0.5
v -0.4 4.4 0.5
v 0.5 0 0.5
v 0.5 4 0.5
v 0.5 4.5 0.5
v 0.5 5 0.5
v -0.5 4 0
v -0.5 4.2 0
v -0.5 4.4 0
v -0.5 4.5 0
v -0.4 4.2 0
v -0.4 4.4 0
v 0.5 4 0
v 0.5 4.5 0
v -0.5 4.7 -0.3
v -0.5 5 -0.3
v 0.5 4.7 -0.3
v 0.5 5 -0.3
v -0.5 0 -0.5
v -0.5 4 -0.5
v -0.5 4.7 -0.5
v 0.5 0 -0.5
v 0.5 4 -0.5
v 0.5 4.7 -0.5
v -0.5 0 0.5
v 0.5 0 0.5
v -0.5 0 -0.5
v 0.5 0 -0.5
v -0.5 4.2 0.5
v -0.4 4.2 0.5
v -0.5 4.2 0
v -0.4 4.2 0
v -0.5 4.5 0.5
v 0.5 4.5 0.5
v -0.5 4.5 0
v 0.5 4.5 0
v -0.5 4 0.5
v 0.5 4 0.5
v -0.5 4 0
v 0.5 4 0
v -0.5 4.4 0.5
v -0.4 4.4 0.5
v -0.5 4.4 0
v -0.4 4.4 0
v -0.5 4.7 -0.3
v 0.5 4.7 -0.3
v -0.5 4.7 -0.5
v 0.5 4.7 -0.5
v -0.5 5 0.5
v 0.5 5 0.5
v -0.5 5 -0.3
v 0.5 5 -0.3

# faces
f 3/2/1 2/2/1 1/2/1
f 4/2/1 2/2/1 3/2/1
f 5/2/1 2/2/1 4/2/1
f 7/1/1 5/1/1 4/1/1
f 8/1/1 7/1/1 6/1/1
f 9/1/1 5/1/1 7/1/1
f 9/1/1 7/1/1 8/1/1
f 11/1/1 5/1/1 9/1/1
f 12/1/1 5/1/1 11/1/1
f 12/1/1 11/1/1 10/1/1
f 13/1/1 5/1/1 12/1/1
f 14/1/1 12/1/1 10/1/1
f 15/1/1 12/1/1 14/1/1
f 16/1/2 17/1/2 18/1/2
f 18/1/2 17/1/2 19/1/2
f 20/2/2 21/2/2 22/2/2
f 22/2/2 21/2/2 23/2/2
f 23/2/2 21/2/2 24/2/2
f 23/1/2 24/1/2 26/1/2
f 26/1/2 24/1/2 27/1/2
f 25/1/2 26/1/2 27/1/2
f 27/1/2 24/1/2 28/1/2
f 25/1/2 27/1/2 29/1/2
f 29/1/2 27/1/2 30/1/2
f 37/1/3 34/1/3 33/1/3
f 38/1/3 34/1/3 37/1/3
f 39/2/3 32/2/3 31/2/3
f 40/2/3 32/2/3 39/2/3
f 41/1/3 36/1/3 35/1/3
f 42/1/3 36/1/3 41/1/3
f 47/1/3 44/1/3 43/1/3
f 48/1/3 46/1/3 45/1/3
f 49/1/3 47/1/3 43/1/3
f 49/1/3 48/1/3 47/1/3
f 50/1/3 46/1/3 48/1/3
f 50/1/3 48/1/3 49/1/3
f 51/1/4 52/1/4 53/1/4
f 53/1/4 52/1/4 54/1/4
f 55/2/4 56/2/4 58/2/4
f 56/1/4 57/1/4 59/1/4
f 58/2/4 56/2/4 59/2/4
f 59/1/4 57/1/4 60/1/4
f 63/2/5 62/2/5 61/2/5
f 64/2/5 62/2/5 63/2/5
f 67/1/5 66/1/5 65/1/5
f 68/1/5 66/1/5 67/1/5
f 71/1/5 70/1/5 69/1/5
f 72/1/5 70/1/5 71/1/5
f 73/2/6 74/2/6 75/2/6
f 75/2/6 74/2/6 76/2/6
f 77/1/6 78/1/6 79/1/6
f 79/1/6 78/1/6 80/1/6
f 81/1/6 82/1/6 83/1/6
f 83/1/6 82/1/6 84/1/6
f 85/1/6 86/1/6 87/1/6
f 87/1/6 86/1/6 88/1/6
